<?xml version="1.0" encoding="UTF-8"?>
<svg xmlns="http://www.w3.org/2000/svg" xmlns:xlink="http://www.w3.org/1999/xlink" viewBox="0 0 150 150" width="150px" height="150px">
<g id="surface1062591">
<path style=" stroke:none;fill-rule:nonzero;fill:rgb(100%,100%,100%);fill-opacity:1;" d="M 59.554688 23.28125 L 14.554688 30.03125 C 13.085938 30.253906 12 31.515625 12 33 L 12 69 C 12 70.660156 13.34375 72 15 72 L 60 72 C 61.65625 72 63 70.660156 63 69 L 63 26.25 C 63 25.378906 62.617188 24.550781 61.957031 23.976562 C 61.296875 23.410156 60.417969 23.164062 59.554688 23.28125 Z M 136.957031 12.726562 C 136.296875 12.160156 135.421875 11.914062 134.554688 12.03125 L 71.554688 21.484375 C 70.085938 21.703125 69 22.964844 69 24.449219 L 69 69 C 69 70.660156 70.34375 72 72 72 L 135 72 C 136.65625 72 138 70.660156 138 69 L 138 15 C 138 14.128906 137.617188 13.300781 136.957031 12.726562 Z M 60 78 L 15 78 C 13.34375 78 12 79.339844 12 81 L 12 117 C 12 118.484375 13.085938 119.746094 14.554688 119.96875 L 59.554688 126.71875 C 59.707031 126.738281 59.851562 126.75 60 126.75 C 60.714844 126.75 61.410156 126.496094 61.957031 126.023438 C 62.617188 125.449219 63 124.621094 63 123.75 L 63 81 C 63 79.339844 61.65625 78 60 78 Z M 135 78 L 72 78 C 70.34375 78 69 79.339844 69 81 L 69 125.550781 C 69 127.035156 70.085938 128.296875 71.554688 128.515625 L 134.554688 137.96875 C 134.703125 137.988281 134.851562 138 135 138 C 135.714844 138 136.410156 137.746094 136.957031 137.273438 C 137.617188 136.699219 138 135.871094 138 135 L 138 81 C 138 79.339844 136.65625 78 135 78 Z M 135 78 "/>
</g>
</svg>
