<?xml version="1.0" encoding="UTF-8"?>
<svg xmlns="http://www.w3.org/2000/svg" xmlns:xlink="http://www.w3.org/1999/xlink" viewBox="0 0 96 96" width="96px" height="96px">
<defs>
<radialGradient id="radial0" gradientUnits="userSpaceOnUse" cx="113" cy="113" fx="113" fy="113" r="80.041672" gradientTransform="matrix(0.424779,0,0,0.424779,0,0)">
<stop offset="0" style="stop-color:rgb(0%,0%,0%);stop-opacity:1;"/>
<stop offset="0.64" style="stop-color:rgb(0%,0%,0%);stop-opacity:0.989;"/>
<stop offset="0.976" style="stop-color:rgb(100%,100%,100%);stop-opacity:0;"/>
</radialGradient>
</defs>
<g id="surface5538519">
<path style=" stroke:none;fill-rule:nonzero;fill:rgb(100%,100%,100%);fill-opacity:1;" d="M 48 10 C 27.015625 10 10 27.015625 10 48 C 10 68.984375 27.015625 86 48 86 C 68.984375 86 86 68.984375 86 48 C 86 27.015625 68.984375 10 48 10 Z M 48 76 C 32.53125 76 20 63.46875 20 48 C 20 32.53125 32.53125 20 48 20 C 63.46875 20 76 32.53125 76 48 C 76 63.46875 63.46875 76 48 76 Z M 48 76 "/>
<path style=" stroke:none;fill-rule:nonzero;fill:url(#radial0);" d="M 48 14 C 29.222656 14 14 29.222656 14 48 C 14 66.777344 29.222656 82 48 82 C 66.777344 82 82 66.777344 82 48 C 82 29.222656 66.777344 14 48 14 Z M 48 74.445312 C 33.390625 74.445312 21.554688 62.609375 21.554688 48 C 21.554688 33.390625 33.390625 21.554688 48 21.554688 C 62.609375 21.554688 74.445312 33.390625 74.445312 48 C 74.445312 62.609375 62.609375 74.445312 48 74.445312 Z M 48 74.445312 "/>
<path style=" stroke:none;fill-rule:nonzero;fill:rgb(67.450982%,67.450982%,67.450982%);fill-opacity:1;" d="M 48 78 C 31.457031 78 18 64.542969 18 48 C 18 31.457031 31.457031 18 48 18 C 64.542969 18 78 31.457031 78 48 C 78 64.542969 64.542969 78 48 78 Z M 48 23.804688 C 34.660156 23.804688 23.804688 34.660156 23.804688 48 C 23.804688 61.339844 34.660156 72.195312 48 72.195312 C 61.339844 72.195312 72.195312 61.339844 72.195312 48 C 72.195312 34.660156 61.339844 23.804688 48 23.804688 Z M 48 23.804688 "/>
</g>
</svg>
