<?xml version="1.0" encoding="UTF-8"?>
<svg xmlns="http://www.w3.org/2000/svg" xmlns:xlink="http://www.w3.org/1999/xlink" viewBox="0 0 120 120" width="120px" height="120px">
<g id="surface14309382">
<path style=" stroke:none;fill-rule:nonzero;fill:rgb(0%,0%,0%);fill-opacity:1;" d="M 52 12 C 29.957031 12 12 29.957031 12 52 C 12 74.042969 29.957031 92 52 92 C 61.585938 92 70.390625 88.597656 77.289062 82.945312 L 101.171875 106.828125 C 102.175781 107.875 103.664062 108.292969 105.066406 107.929688 C 106.46875 107.5625 107.5625 106.46875 107.929688 105.066406 C 108.292969 103.664062 107.875 102.175781 106.828125 101.171875 L 82.945312 77.289062 C 88.597656 70.390625 92 61.585938 92 52 C 92 29.957031 74.042969 12 52 12 Z M 52 20 C 69.71875 20 84 34.28125 84 52 C 84 69.71875 69.71875 84 52 84 C 34.28125 84 20 69.71875 20 52 C 20 34.28125 34.28125 20 52 20 Z M 52 20 "/>
</g>
</svg>
