<?xml version="1.0"?>
<svg xmlns="http://www.w3.org/2000/svg" xmlns:xlink="http://www.w3.org/1999/xlink" xmlns:svgjs="http://svgjs.com/svgjs" version="1.1" width="512" height="512" x="0" y="0" viewBox="0 0 512 512" style="enable-background:new 0 0 512 512" xml:space="preserve" class=""><g><path xmlns="http://www.w3.org/2000/svg" d="m464 64h-352v-48c0-8.837-7.164-16-16-16s-16 7.163-16 16v48h-32c-26.467 0-48 21.532-48 48v352c0 26.468 21.533 48 48 48h416c26.467 0 48-21.532 48-48v-352c0-26.468-21.533-48-48-48zm16 400c0 8.822-7.178 16-16 16h-416c-8.822 0-16-7.178-16-16v-352c0-8.822 7.178-16 16-16h32c0 35.29 28.71 64 64 64h128c17.645 0 32 14.355 32 32v9.801l-26.94-8.98c-6.844-2.284-14.37.3-18.373 6.304-34.655 51.983-34.687 50.36-34.687 56.875v96c0 52.935 43.065 96 96 96s96-43.065 96-96v-96c0-6.484.558-4.007-34.687-56.875-4.003-6.004-11.527-8.589-18.373-6.304l-26.94 8.98v-9.801c0-35.29-28.71-64-64-64h-128c-17.645 0-32-14.355-32-32h352c8.822 0 16 7.178 16 16zm-165.06-224.821c6.708 2.259 7.854.755 46.525-12.135l22.535 33.801v91.155c0 35.29-28.71 64-64 64s-64-28.71-64-64v-91.155l22.534-33.801z" fill="#ffffff" data-original="#000000" style=""/><path xmlns="http://www.w3.org/2000/svg" d="m320 320c8.836 0 16-7.163 16-16v-32c0-8.837-7.164-16-16-16s-16 7.163-16 16v32c0 8.837 7.164 16 16 16z" fill="#ffffff" data-original="#000000" style=""/></g></svg>
