<?xml version="1.0"?>
<svg xmlns="http://www.w3.org/2000/svg" xmlns:xlink="http://www.w3.org/1999/xlink" xmlns:svgjs="http://svgjs.com/svgjs" version="1.1" width="512" height="512" x="0" y="0" viewBox="0 0 512.029 512.029" style="enable-background:new 0 0 512 512" xml:space="preserve" class=""><rect width="512.029" height="512.029" fill="#000000" shape="square"/><g transform="matrix(0.7,0,0,0.7,76.80439599752427,76.80419998168946)">
<g xmlns="http://www.w3.org/2000/svg">
	<path style="" d="M192.829,189.102c42.688,0,81.6,33.024,83.232,34.432c6.688,5.76,7.424,15.808,1.696,22.528   s-15.808,7.456-22.528,1.76c-0.32-0.256-31.68-26.688-62.4-26.688c-0.256-0.032-0.544,0.064-0.8,0.064v66.304   c6.592,1.984,13.632,3.392,21.6,3.392c45.696,0,99.712-36.832,132.128-65.184c-36.16-29.76-97.6-65.696-142.528-65.696   c-3.648,0-7.424,0.448-11.2,0.896v28.256C192.285,189.166,192.541,189.102,192.829,189.102z" fill="#4caf50" data-original="#4caf50" class=""/>
	<path style="" d="M496.029,64.014h-288c-8.832,0-16,7.168-16,16v48.8c3.744-0.352,7.488-0.8,11.2-0.8   c63.616,0,142.592,52.672,177.408,85.888c3.168,2.976,4.928,7.136,4.96,11.456s-1.728,8.512-4.8,11.552   c-8.992,8.8-90.048,86.016-167.2,86.016c-7.712,0-14.816-0.928-21.6-2.272v29.6c3.936,0.896,7.84,1.76,11.232,1.76   c44.608,0,176.192-36.384,217.6-76.896c6.272-6.176,16.48-6.048,22.624,0.256c6.176,6.304,6.048,16.448-0.256,22.624   c-49.856,48.832-189.216,86.016-239.968,86.016c-3.552,0-7.456-1.088-11.2-1.664v49.664c0,8.832,7.168,16,16,16h288   c8.832,0,16-7.168,16-16v-352C512.029,71.182,504.861,64.014,496.029,64.014z" fill="#4caf50" data-original="#4caf50" class=""/>
	<path style="" d="M139.773,240.878c11.52-7.776,32.064-19.36,52.256-19.68v-32.032   c-42.4,0.416-80.8,32.96-82.432,34.336c-4.96,4.256-6.816,11.104-4.704,17.28c1.024,3.072,23.904,67.424,87.136,79.872v-33.12   C163.357,278.958,147.005,254.99,139.773,240.878z" fill="#4caf50" data-original="#4caf50" class=""/>
	<path style="" d="M40.829,230.702c11.52-6.176,23.296-12.864,35.104-19.616   c39.776-22.688,80.736-45.856,116.096-50.176v-32.096c-42.912,3.968-88.096,29.472-131.936,54.496   c-17.376,9.888-34.528,19.68-51.104,27.776c-4.32,2.112-7.488,6.08-8.576,10.784s0,9.632,2.976,13.44   c54.368,69.472,131.648,138.688,188.64,147.04v-32.096C154.205,341.838,93.725,294.254,40.829,230.702z" fill="#4caf50" data-original="#4caf50" class=""/>
</g>
<g xmlns="http://www.w3.org/2000/svg">
</g>
<g xmlns="http://www.w3.org/2000/svg">
</g>
<g xmlns="http://www.w3.org/2000/svg">
</g>
<g xmlns="http://www.w3.org/2000/svg">
</g>
<g xmlns="http://www.w3.org/2000/svg">
</g>
<g xmlns="http://www.w3.org/2000/svg">
</g>
<g xmlns="http://www.w3.org/2000/svg">
</g>
<g xmlns="http://www.w3.org/2000/svg">
</g>
<g xmlns="http://www.w3.org/2000/svg">
</g>
<g xmlns="http://www.w3.org/2000/svg">
</g>
<g xmlns="http://www.w3.org/2000/svg">
</g>
<g xmlns="http://www.w3.org/2000/svg">
</g>
<g xmlns="http://www.w3.org/2000/svg">
</g>
<g xmlns="http://www.w3.org/2000/svg">
</g>
<g xmlns="http://www.w3.org/2000/svg">
</g>
</g></svg>
