<?xml version="1.0"?>
<svg xmlns="http://www.w3.org/2000/svg" xmlns:xlink="http://www.w3.org/1999/xlink" xmlns:svgjs="http://svgjs.com/svgjs" version="1.1" width="512" height="512" x="0" y="0" viewBox="0 0 512 512" style="enable-background:new 0 0 512 512" xml:space="preserve" class=""><g><path xmlns="http://www.w3.org/2000/svg" d="m60 512c33.089844 0 61-26.910156 61-60s-27.910156-61-61-61-60 27.910156-60 61 26.910156 60 60 60zm0 0" fill="#ffffff" data-original="#000000" style="" class=""/><path xmlns="http://www.w3.org/2000/svg" d="m15 300h30c91.125 0 167 75.871094 167 167v30c0 8.285156 6.714844 15 15 15h30c8.285156 0 15-6.714844 15-15v-30c0-124.265625-102.734375-227-227-227h-30c-8.285156 0-15 6.714844-15 15v30c0 8.285156 6.714844 15 15 15zm0 0" fill="#ffffff" data-original="#000000" style="" class=""/><path xmlns="http://www.w3.org/2000/svg" d="m15 180h30c157.402344 0 287 129.597656 287 287v30c0 8.285156 6.714844 15 15 15h30c8.285156 0 15-6.714844 15-15v-30c0-190.539062-156.460938-347-347-347h-30c-8.285156 0-15 6.714844-15 15v30c0 8.285156 6.714844 15 15 15zm0 0" fill="#ffffff" data-original="#000000" style="" class=""/><path xmlns="http://www.w3.org/2000/svg" d="m45 0h-30c-8.285156 0-15 6.714844-15 15v30c0 8.285156 6.714844 15 15 15h30c223.675781 0 407 183.324219 407 407v30c0 8.285156 6.714844 15 15 15h30c8.285156 0 15-6.714844 15-15v-30c0-256.8125-210.1875-467-467-467zm0 0" fill="#ffffff" data-original="#000000" style="" class=""/></g></svg>
