<?xml version="1.0" encoding="iso-8859-1"?>
<!-- Generator: Adobe Illustrator 19.0.0, SVG Export Plug-In . SVG Version: 6.00 Build 0)  -->
<svg version="1.1" fill="#00adef" id="Capa_1" xmlns="http://www.w3.org/2000/svg" xmlns:xlink="http://www.w3.org/1999/xlink" x="0px" y="0px"
	 viewBox="0 0 512 512" xml:space="preserve">
<g>
	<g>
		<path d="M206.919,43.678C-1.253,71.189,22.953,67.896,9.349,70.077c-5.189,0.832-8.957,5.251-8.957,10.508v163.199
			c0,5.882,4.761,10.648,10.646,10.648c0.003,0,0.006,0,0.009,0c65.036-0.055,130.694-1.763,197.272-1.815
			c5.864-0.005,10.635-4.777,10.635-10.638V54.23C218.955,47.79,213.275,42.835,206.919,43.678z M203.977,237.646
			c-63.787,0.118-126.402,1.681-188.607,1.803V84.281c8.842-1.418-12.877,1.521,188.607-25.106V237.646z"/>
	</g>
</g>
<g>
	<g>
		<path d="M208.05,259.536c-57.71,1.425-198.01-0.083-197.011-0.083c-5.883,0-10.646,4.763-10.646,10.647v163.132
			c0,5.302,3.962,9.836,9.216,10.547c1.054,0.143,196.121,26.521,198.697,26.521c5.861,0,10.648-4.753,10.648-10.642v-189.49
			C218.955,264.096,213.927,259.385,208.05,259.536z M203.977,454.714c-64.737-8.535-127.664-17.035-188.607-25.271V274.526
			c62.042,0.119,124.732,1.44,188.607,0V454.714z"/>
	</g>
</g>
<g>
	<g>
		<path d="M499.452,0.109c-41.604,5.94-82.08,11.65-122.51,17.557c-4.093,0.598-6.926,4.401-6.328,8.493
			c0.598,4.092,4.394,6.926,8.494,6.328c38.599-5.64,76.862-11.045,117.522-16.845v220.185
			c-84.049,0.093-170.088,1.716-254.044,1.809V53.455c14.9-2.216,38.659-6.396,101.599-15.81c4.091-0.612,6.911-4.424,6.299-8.514
			c-0.612-4.09-4.425-6.912-8.514-6.299c-63.066,9.433-85.428,13.405-105.283,16.357c-5.175,0.769-9.079,5.294-9.079,10.526V241.97
			c0,5.88,4.755,10.645,10.64,10.645c82.463,0,176.023-1.774,262.73-1.815c5.861-0.003,10.63-4.776,10.63-10.638V10.642
			C511.608,4.176,505.868-0.806,499.452,0.109z"/>
	</g>
</g>
<g>
	<g>
		<path d="M504.119,385.694c4.136,0,7.489-3.353,7.489-7.489V271.912c0-5.868-4.774-10.642-10.642-10.642H238.25
			c-5.868,0-10.642,4.774-10.642,10.642V464.15c0,5.266,3.93,9.798,9.143,10.539c86.516,12.319,175.875,23.127,262.52,37.17
			c6.455,1.051,12.338-3.937,12.338-10.5v-88.207c0-4.136-3.353-7.489-7.489-7.489c-4.136,0-7.489,3.353-7.489,7.489v83.109
			c-84.069-13.489-170.184-23.985-254.044-35.872V276.247H496.63v101.958C496.63,382.341,499.983,385.694,504.119,385.694z"/>
	</g>
</g>
<g>
</g>
<g>
</g>
<g>
</g>
<g>
</g>
<g>
</g>
<g>
</g>
<g>
</g>
<g>
</g>
<g>
</g>
<g>
</g>
<g>
</g>
<g>
</g>
<g>
</g>
<g>
</g>
<g>
</g>
</svg>
