<?xml version="1.0"?>
<svg xmlns="http://www.w3.org/2000/svg" xmlns:xlink="http://www.w3.org/1999/xlink" xmlns:svgjs="http://svgjs.com/svgjs" version="1.1" width="512" height="512" x="0" y="0" viewBox="0 0 265.257 265.257" style="enable-background:new 0 0 512 512" xml:space="preserve"><g>
<g xmlns="http://www.w3.org/2000/svg">
	<path style="" d="M247.757,27.677H17.5c-9.649,0-17.5,7.851-17.5,17.5V220.08c0,9.65,7.851,17.5,17.5,17.5h230.257   c9.649,0,17.5-7.85,17.5-17.5V45.177C265.257,35.528,257.407,27.677,247.757,27.677z M17.5,42.677h230.257   c1.355,0,2.5,1.145,2.5,2.5v116.474l-40.108-51.474c-2.976-3.819-7.332-6.108-11.952-6.278c-4.619-0.173-9.132,1.791-12.382,5.382   l-52.039,57.512c-1.253,1.384-4.033,1.766-5.614,0.772l-42.788-26.946c-7.332-4.619-18.063-4.143-24.958,1.105L15,176.288V45.177   C15,43.822,16.145,42.677,17.5,42.677z M247.757,222.58H17.5c-1.355,0-2.5-1.145-2.5-2.5v-24.942l54.501-41.478   c1.893-1.44,5.87-1.616,7.881-0.349l42.788,26.946c7.734,4.871,18.596,3.377,24.729-3.4l52.039-57.512   c0.312-0.345,0.535-0.45,0.708-0.457c0.131,0.005,0.385,0.141,0.671,0.508l51.94,66.658v34.025   C250.257,221.435,249.112,222.58,247.757,222.58z" fill="#ffffff" data-original="#000002"/>
	<path style="" d="M110.843,129.224c14.649,0,26.566-11.917,26.566-26.566s-11.918-26.566-26.566-26.566   c-14.649,0-26.566,11.918-26.566,26.566S96.194,129.224,110.843,129.224z M110.843,91.091c6.378,0,11.566,5.188,11.566,11.566   c0,6.378-5.188,11.566-11.566,11.566c-6.378,0-11.566-5.188-11.566-11.566C99.277,96.28,104.465,91.091,110.843,91.091z" fill="#ffffff" data-original="#000002"/>
</g>
<g xmlns="http://www.w3.org/2000/svg">
</g>
<g xmlns="http://www.w3.org/2000/svg">
</g>
<g xmlns="http://www.w3.org/2000/svg">
</g>
<g xmlns="http://www.w3.org/2000/svg">
</g>
<g xmlns="http://www.w3.org/2000/svg">
</g>
<g xmlns="http://www.w3.org/2000/svg">
</g>
<g xmlns="http://www.w3.org/2000/svg">
</g>
<g xmlns="http://www.w3.org/2000/svg">
</g>
<g xmlns="http://www.w3.org/2000/svg">
</g>
<g xmlns="http://www.w3.org/2000/svg">
</g>
<g xmlns="http://www.w3.org/2000/svg">
</g>
<g xmlns="http://www.w3.org/2000/svg">
</g>
<g xmlns="http://www.w3.org/2000/svg">
</g>
<g xmlns="http://www.w3.org/2000/svg">
</g>
<g xmlns="http://www.w3.org/2000/svg">
</g>
</g></svg>
